<?xml version="1.0" encoding="UTF-8"?>
<svg width="24px" height="15px" viewBox="0 0 24 15" version="1.1" xmlns="http://www.w3.org/2000/svg" xmlns:xlink="http://www.w3.org/1999/xlink">
    <!-- Generator: Sketch 47.1 (45422) - http://www.bohemiancoding.com/sketch -->
    <title>Behance-color</title>
    <desc>Created with Sketch.</desc>
    <defs></defs>
    <g id="Symbols" stroke="none" stroke-width="1" fill="none" fill-rule="evenodd">
        <g id="Footer" transform="translate(-1102.000000, -54.000000)" fill="#495262">
            <g id="Group-2">
                <g transform="translate(880.000000, 50.000000)">
                    <path d="M237.335884,6.50301624 L243.691498,6.50301624 L243.691498,4.68213457 L237.335884,4.68213457 L237.335884,6.50301624 L237.335884,6.50301624 Z M238.841532,10.4761021 C238.436545,10.8881671 238.181135,11.4464037 238.076714,12.1508121 L243.019813,12.1508121 C242.967602,11.3990719 242.710781,10.8310905 242.256405,10.4399072 C241.796385,10.0515081 241.230532,9.85800464 240.553202,9.85800464 C239.819428,9.85800464 239.246519,10.0640371 238.841532,10.4761021 L238.841532,10.4761021 L238.841532,10.4761021 Z M243.13129,8.03155452 C243.89752,8.36844548 244.528283,8.90301624 245.024992,9.6324826 C245.477957,10.2756381 245.768644,11.0218097 245.901288,11.8696056 C245.978899,12.3651972 246.009943,13.0835267 245.997243,14.0176334 L238.006158,14.0176334 C238.054136,15.1020882 238.432312,15.8635731 239.154798,16.2993039 C239.59224,16.5707657 240.118582,16.7071926 240.736646,16.7071926 C241.387165,16.7071926 241.919151,16.5415313 242.32696,16.2116009 C242.551326,16.0320186 242.748881,15.7842227 242.918213,15.4668213 L245.846255,15.4668213 C245.768644,16.1071926 245.413046,16.7600928 244.783693,17.4227378 C243.801565,18.4737819 242.425738,19 240.657624,19 C239.197131,19 237.908792,18.5573086 236.795431,17.6691415 C235.676425,16.7823666 235.12045,15.337355 235.12045,13.3382831 C235.12045,11.463109 235.624214,10.025058 236.630332,9.02412993 C237.639271,8.02598608 238.944543,7.52343387 240.551791,7.52343387 C241.507109,7.52343387 242.366471,7.69327146 243.13129,8.03155452 L243.13129,8.03155452 L243.13129,8.03155452 Z M224.956264,12.1897912 L224.956264,16.0918794 L228.557403,16.0918794 C229.200866,16.0918794 229.70322,16.0055684 230.060229,15.8343387 C230.710748,15.5141531 231.035302,14.9071926 231.035302,14.0078886 C231.035302,13.2450116 230.722037,12.7229698 230.091273,12.437587 C229.738497,12.2788863 229.243199,12.1953596 228.608202,12.1897912 L224.956264,12.1897912 L224.956264,12.1897912 Z M224.956264,6.54060325 L224.956264,9.76890951 L228.563047,9.76890951 C229.2051,9.76890951 229.728619,9.64779582 230.132195,9.40556845 C230.532949,9.16334107 230.734737,8.73457077 230.734737,8.12204176 C230.734737,7.43851508 230.469449,6.98886311 229.938874,6.76890951 C229.478854,6.61716937 228.894657,6.54060325 228.184871,6.54060325 L224.956264,6.54060325 L224.956264,6.54060325 Z M233.010848,5.55916473 C233.463813,6.18143852 233.691001,6.92482599 233.691001,7.79211137 C233.691001,8.68445476 233.463813,9.40417633 233.005204,9.94709977 C232.748383,10.25058 232.371618,10.5290023 231.873498,10.7795824 C232.62985,11.0524362 233.199936,11.4825986 233.58799,12.0714617 C233.971811,12.6589327 234.165132,13.374478 234.165132,14.2153132 C234.165132,15.0825986 233.945,15.8607889 233.503324,16.5484919 C233.223925,17.0037123 232.873971,17.387935 232.453462,17.699768 C231.980742,18.0575406 231.423356,18.3011601 230.778481,18.4348028 C230.133606,18.5670534 229.436521,18.6310905 228.682991,18.6310905 L222,18.6310905 L222,4 L229.167,4 C230.976036,4.02645012 232.255908,4.54570766 233.010848,5.55916473 L233.010848,5.55916473 L233.010848,5.55916473 Z" id="Behance"></path>
                </g>
            </g>
        </g>
    </g>
</svg>