<?xml version="1.0" encoding="UTF-8"?>
<svg width="24px" height="24px" viewBox="0 0 24 24" version="1.1" xmlns="http://www.w3.org/2000/svg" xmlns:xlink="http://www.w3.org/1999/xlink">
    <!-- Generator: Sketch 47.1 (45422) - http://www.bohemiancoding.com/sketch -->
    <title>Instagram-color</title>
    <desc>Created with Sketch.</desc>
    <defs></defs>
    <g id="Symbols" stroke="none" stroke-width="1" fill="none" fill-rule="evenodd">
        <g id="Footer" transform="translate(-954.000000, -50.000000)" fill="#495262">
            <g id="Group-2">
                <g transform="translate(880.000000, 50.000000)">
                    <path d="M86.0000238,0 C89.2590043,0 89.6676571,0.0138138818 90.9475847,0.0722132578 C92.2248447,0.130469732 93.0971676,0.333343257 93.860456,0.630008276 C94.6495621,0.936628817 95.3187732,1.34694874 95.985936,2.01406396 C96.6530513,2.68122682 97.0633712,3.35043794 97.3700394,4.13954402 C97.6666567,4.90283244 97.8695303,5.77515526 97.9277867,7.05241535 C97.9861861,8.33234294 98,8.74099567 98,12.0000238 C98,15.2590043 97.9861861,15.6676571 97.9277867,16.9475847 C97.8695303,18.2248447 97.6666567,19.0971676 97.3700394,19.860456 C97.0633712,20.6495621 96.6530513,21.3187732 95.985936,21.985936 C95.3187732,22.6530513 94.6495621,23.0633712 93.860456,23.3700394 C93.0971676,23.6666567 92.2248447,23.8695303 90.9475847,23.9277867 C89.6676571,23.9861861 89.2590043,24 86.0000238,24 C82.7409957,24 82.3323429,23.9861861 81.0524153,23.9277867 C79.7751553,23.8695303 78.9028324,23.6666567 78.139544,23.3700394 C77.3504379,23.0633712 76.6812268,22.6530513 76.014064,21.985936 C75.3469487,21.3187732 74.9366288,20.6495621 74.6300083,19.860456 C74.3333433,19.0971676 74.1304697,18.2248447 74.0722133,16.9475847 C74.0138139,15.6676571 74,15.2590043 74,12.0000238 C74,8.74099567 74.0138139,8.33234294 74.0722133,7.05241535 C74.1304697,5.77515526 74.3333433,4.90283244 74.6300083,4.13954402 C74.9366288,3.35043794 75.3469487,2.68122682 76.014064,2.01406396 C76.6812268,1.34694874 77.3504379,0.936628817 78.139544,0.630008276 C78.9028324,0.333343257 79.7751553,0.130469732 81.0524153,0.0722132578 C82.3323429,0.0138138818 82.7409957,0 86.0000238,0 Z M86.0000238,2.1621583 C82.7958701,2.1621583 82.4163218,2.17440026 81.1509702,2.23213276 C79.9809821,2.28548292 79.3455912,2.48097316 78.9227435,2.64531072 C78.3626144,2.86299845 77.9628692,3.12303286 77.5429749,3.54297487 C77.1230329,3.96286924 76.8629984,4.3626144 76.6453107,4.92274348 C76.4809732,5.34559117 76.2854829,5.9809821 76.2321328,7.15097025 C76.1744003,8.41632182 76.1621583,8.79587013 76.1621583,12.0000238 C76.1621583,15.2041299 76.1744003,15.5836782 76.2321328,16.8490298 C76.2854829,18.0190179 76.4809732,18.6544088 76.6453107,19.0772565 C76.8629984,19.6373856 77.1230805,20.0371308 77.5429749,20.4570251 C77.9628692,20.8769671 78.3626144,21.1370016 78.9227435,21.3546893 C79.3455912,21.5190268 79.9809821,21.7145171 81.1509702,21.7678672 C82.4161789,21.8255997 82.795632,21.8378417 86.0000238,21.8378417 C89.204368,21.8378417 89.5838687,21.8255997 90.8490298,21.7678672 C92.0190179,21.7145171 92.6544088,21.5190268 93.0772565,21.3546893 C93.6373856,21.1370016 94.0371308,20.8769671 94.4570251,20.4570251 C94.8769671,20.0371308 95.1370016,19.6373856 95.3546893,19.0772565 C95.5190268,18.6544088 95.7145171,18.0190179 95.7678672,16.8490298 C95.8255997,15.5836782 95.8378417,15.2041299 95.8378417,12.0000238 C95.8378417,8.79587013 95.8255997,8.41632182 95.7678672,7.15097025 C95.7145171,5.9809821 95.5190268,5.34559117 95.3546893,4.92274348 C95.1370016,4.3626144 94.8769671,3.96286924 94.4570251,3.54297487 C94.0371308,3.12303286 93.6373856,2.86299845 93.0772565,2.64531072 C92.6544088,2.48097316 92.0190179,2.28548292 90.8490298,2.23213276 C89.5836782,2.17440026 89.2041299,2.1621583 86.0000238,2.1621583 Z M86.0000238,5.8378417 C89.4032879,5.8378417 92.1621583,8.59671206 92.1621583,12.0000238 C92.1621583,15.4032879 89.4032879,18.1621583 86.0000238,18.1621583 C82.5967121,18.1621583 79.8378417,15.4032879 79.8378417,12.0000238 C79.8378417,8.59671206 82.5967121,5.8378417 86.0000238,5.8378417 Z M86.0000238,16 C88.2091493,16 90,14.2091493 90,12.0000238 C90,9.79085069 88.2091493,8 86.0000238,8 C83.7908507,8 82,9.79085069 82,12.0000238 C82,14.2091493 83.7908507,16 86.0000238,16 Z M93.8456418,5.59438394 C93.8456418,6.38968246 93.2009146,7.03436203 92.4056161,7.03436203 C91.6103652,7.03436203 90.965638,6.38968246 90.965638,5.59438394 C90.965638,4.79908543 91.6103652,4.15435822 92.4056161,4.15435822 C93.2009146,4.15435822 93.8456418,4.79908543 93.8456418,5.59438394 Z" id="Instagram"></path>
                </g>
            </g>
        </g>
    </g>
</svg>