<?xml version="1.0" encoding="UTF-8"?>
<svg width="40px" height="40px" viewBox="0 0 40 40" version="1.1" xmlns="http://www.w3.org/2000/svg" xmlns:xlink="http://www.w3.org/1999/xlink">
    <!-- Generator: Sketch 50.2 (55047) - http://www.bohemiancoding.com/sketch -->
    <title>behance</title>
    <desc>Created with Sketch.</desc>
    <defs></defs>
    <g id="Ver2" stroke="none" stroke-width="1" fill="none" fill-rule="evenodd">
        <g id="Home" transform="translate(-240.000000, -582.000000)" fill="#0057FF" fill-rule="nonzero">
            <g id="Visual">
                <g id="sub_social" transform="translate(240.000000, 525.000000)">
                    <g id="behance" transform="translate(0.000000, 57.000000)">
                        <path d="M36.0493735,10.2044857 L26.047239,10.2044857 L26.047239,7.72003094 L36.0502088,7.72003094 L36.0502088,10.2044857 L36.0493735,10.2044857 Z M19.3885847,20.3924207 C20.0339675,21.3920495 20.3564733,22.605785 20.3564733,24.0307502 C20.3564733,25.5043465 19.9928538,26.8262954 19.2530858,27.9939985 C18.7824594,28.7667131 18.1981439,29.4194277 17.4960557,29.9449033 C16.7053364,30.5526063 15.7691879,30.9693117 14.692993,31.1919567 C13.6133643,31.4149729 12.444826,31.5276411 11.1860789,31.5276411 L0,31.5276411 L0,6.6895901 L11.9953596,6.6895901 C15.0189327,6.73877804 17.1625058,7.61478732 18.4283063,9.33515855 C19.1878422,10.3902862 19.5641763,11.656365 19.5641763,13.1280124 C19.5641763,14.6465275 19.1832947,15.8615623 18.4163341,16.7847177 C17.9896984,17.3023047 17.3594432,17.7731168 16.5251044,18.198082 C17.7888631,18.660727 18.7477494,19.3892653 19.3885847,20.3924207 Z M5.72825986,16.4819799 L10.9841299,16.4819799 C12.0642227,16.4819799 12.937355,16.2766899 13.6098376,15.8662954 C14.2818561,15.4565507 14.6171694,14.728198 14.6171694,13.6824439 C14.6171694,12.5270843 14.1731787,11.7602166 13.2830626,11.3911214 C12.5179582,11.1346945 11.5390255,11.0026295 10.3511833,11.0026295 L5.72825986,11.0026295 L5.72825986,16.4819799 Z M15.1232483,23.6759474 C15.1232483,22.3857386 14.5959165,21.4937664 13.5433875,21.0151585 C12.9548028,20.74314 12.1243619,20.6041145 11.0595824,20.5941841 L5.72825986,20.5941841 L5.72825986,27.2133952 L10.9770766,27.2133952 C12.055406,27.2133952 12.8900232,27.0722351 13.4923434,26.7777572 C14.5785615,26.2363186 15.1232483,25.2058778 15.1232483,23.6759474 Z M39.760464,19.6352049 C39.8812993,20.4478268 39.9359629,21.6268523 39.9137819,23.1679196 L26.9599072,23.1679196 C27.0313689,24.9559474 27.6486311,26.2063418 28.8193039,26.9218871 C29.52529,27.370611 30.3812529,27.5897293 31.3835731,27.5897293 C32.440464,27.5897293 33.3019026,27.3225367 33.9650116,26.7733024 C34.3263109,26.4821655 34.6450116,26.0712142 34.9205568,25.5526991 L39.6685847,25.5526991 C39.5442227,26.6087548 38.972529,27.6798453 37.9451508,28.7682908 C36.3534107,30.498314 34.1210209,31.365785 31.2540139,31.365785 C28.8855684,31.365785 26.7982367,30.6341841 24.9864501,29.1762722 C23.1806961,27.713256 22.2737819,25.3405414 22.2737819,22.0491261 C22.2737819,18.9626295 23.0879814,16.6002166 24.7218561,14.9558546 C26.3617633,13.30843 28.4781439,12.4884764 31.0868677,12.4884764 C32.6331323,12.4884764 34.027007,12.7648569 35.2705336,13.320495 C36.5101624,13.8766899 37.5346636,14.7520495 38.3415313,15.9551121 C39.0717401,17.0146017 39.5413457,18.2396597 39.760464,19.6352049 Z M35.0869606,20.0986852 C34.9999072,18.8623047 34.5870998,17.9265275 33.8438051,17.2869915 C33.1066357,16.6456922 32.1857077,16.3237432 31.0868677,16.3237432 C29.8909513,16.3237432 28.9675174,16.6678732 28.3113689,17.3442537 C27.6507657,18.0192421 27.2397216,18.9369219 27.0712761,20.098778 L35.0869606,20.098778 L35.0869606,20.0986852 Z" id="Behance"></path>
                    </g>
                </g>
            </g>
        </g>
    </g>
</svg>