<?xml version="1.0" encoding="UTF-8"?>
<svg width="29px" height="18px" viewBox="0 0 29 18" version="1.1" xmlns="http://www.w3.org/2000/svg" xmlns:xlink="http://www.w3.org/1999/xlink">
    <!-- Generator: Sketch 47.1 (45422) - http://www.bohemiancoding.com/sketch -->
    <title>Behance-color</title>
    <desc>Created with Sketch.</desc>
    <defs></defs>
    <g id="Symbols" stroke="none" stroke-width="1" fill="none" fill-rule="evenodd">
        <g id="Footer" transform="translate(-1097.000000, -51.000000)" fill="#2F3743">
            <g id="Group-2">
                <g transform="translate(879.000000, 50.000000)">
                    <path d="M236.403061,4.00361949 L244.029798,4.00361949 L244.029798,1.81856148 L236.403061,1.81856148 L236.403061,4.00361949 L236.403061,4.00361949 Z M238.209839,8.77132251 C237.723854,9.26580046 237.417362,9.93568445 237.292056,10.7809745 L243.223775,10.7809745 C243.161122,9.87888631 242.852937,9.19730858 242.307686,8.72788863 C241.755662,8.26180974 241.076639,8.02960557 240.263842,8.02960557 C239.383313,8.02960557 238.695823,8.27684455 238.209839,8.77132251 L238.209839,8.77132251 L238.209839,8.77132251 Z M243.357548,5.83786543 C244.277024,6.24213457 245.03394,6.88361949 245.629991,7.75897912 C246.173548,8.53076566 246.522373,9.42617169 246.681546,10.4435267 C246.774679,11.0382367 246.811932,11.900232 246.796692,13.0211601 L237.20739,13.0211601 C237.264963,14.3225058 237.718774,15.2362877 238.585757,15.7591647 C239.110688,16.0849188 239.742298,16.2486311 240.483975,16.2486311 C241.264598,16.2486311 241.902981,16.0498376 242.392353,15.6539211 C242.661591,15.4384223 242.898657,15.1410673 243.101856,14.7601856 L246.615506,14.7601856 C246.522373,15.5286311 246.095655,16.3121114 245.340432,17.1072854 C244.161878,18.3685383 242.510885,19 240.389149,19 C238.636557,19 237.090551,18.4687703 235.754517,17.4029698 C234.41171,16.3388399 233.74454,14.604826 233.74454,12.2059397 C233.74454,9.95573086 234.349057,8.23006961 235.556398,7.02895592 C236.767126,5.83118329 238.333452,5.22812065 240.262149,5.22812065 C241.40853,5.22812065 242.439766,5.43192575 243.357548,5.83786543 L243.357548,5.83786543 L243.357548,5.83786543 Z M221.547517,10.8277494 L221.547517,15.5102552 L225.868883,15.5102552 C226.64104,15.5102552 227.243863,15.4066821 227.672275,15.2012065 C228.452898,14.8169838 228.842363,14.0886311 228.842363,13.0094664 C228.842363,12.0940139 228.466444,11.4675638 227.709528,11.1251044 C227.286197,10.9346636 226.691839,10.8344316 225.929843,10.8277494 L221.547517,10.8277494 L221.547517,10.8277494 Z M221.547517,4.0487239 L221.547517,7.92269142 L225.875656,7.92269142 C226.64612,7.92269142 227.274343,7.77735499 227.758634,7.48668213 C228.239539,7.19600928 228.481684,6.68148492 228.481684,5.94645012 C228.481684,5.1262181 228.163339,4.58663573 227.526649,4.32269142 C226.974625,4.14060325 226.273588,4.0487239 225.421845,4.0487239 L221.547517,4.0487239 L221.547517,4.0487239 Z M231.213018,2.87099768 C231.756576,3.61772622 232.029201,4.50979118 232.029201,5.55053364 C232.029201,6.62134571 231.756576,7.4850116 231.206245,8.13651972 C230.89806,8.50069606 230.445942,8.83480278 229.848198,9.13549884 C230.75582,9.46292343 231.439924,9.97911833 231.905588,10.6857541 C232.366173,11.3907193 232.598158,12.2493735 232.598158,13.2583759 C232.598158,14.2991183 232.334,15.2329466 231.803989,16.0581903 C231.46871,16.6044548 231.048766,17.065522 230.544155,17.4397216 C229.976891,17.8690487 229.308027,18.1613921 228.534177,18.3217633 C227.760328,18.480464 226.923825,18.5573086 226.019589,18.5573086 L218,18.5573086 L218,1 L226.6004,1 C228.771243,1.03174014 230.307089,1.65484919 231.213018,2.87099768 L231.213018,2.87099768 L231.213018,2.87099768 Z" id="Behance"></path>
                </g>
            </g>
        </g>
    </g>
</svg>