<?xml version="1.0" encoding="UTF-8"?>
<svg width="20px" height="20px" viewBox="0 0 20 20" version="1.1" xmlns="http://www.w3.org/2000/svg" xmlns:xlink="http://www.w3.org/1999/xlink">
    <!-- Generator: Sketch 47.1 (45422) - http://www.bohemiancoding.com/sketch -->
    <title>Dribbble-color</title>
    <desc>Created with Sketch.</desc>
    <defs></defs>
    <g id="Symbols" stroke="none" stroke-width="1" fill="none" fill-rule="evenodd">
        <g id="Footer" transform="translate(-1027.000000, -50.000000)" fill="#2F3743">
            <g id="Group-2">
                <g transform="translate(879.000000, 50.000000)">
                    <path d="M162.772741,17.0827209 C162.685718,16.5676995 162.230611,14.0607913 161.109896,10.9835969 C163.867584,10.5426539 166.256012,11.2987242 166.43241,11.3563408 C166.052567,13.7362573 164.689598,15.7881122 162.772741,17.0827209 L162.772741,17.0827209 L162.772741,17.0827209 Z M158.000588,18.5407725 C155.933204,18.5407725 154.037514,17.8058675 152.559299,16.5829855 C152.672194,16.6747016 152.750985,16.7323182 152.750985,16.7323182 C152.750985,16.7323182 154.387958,13.1624434 159.452931,11.3974954 C159.471747,11.3904404 159.491739,11.385737 159.510554,11.3798577 C160.712413,14.5017344 161.207503,17.1168205 161.334509,17.863484 C160.310225,18.2985478 159.182454,18.5407725 158.000588,18.5407725 L158.000588,18.5407725 L158.000588,18.5407725 Z M149.459399,9.99941208 C149.459399,9.90887177 149.464103,9.81950732 149.466455,9.73014287 C149.618157,9.73367041 153.837596,9.8289141 158.234609,8.5131401 C158.479214,8.99171027 158.713236,9.47968722 158.927265,9.96531248 C158.814371,9.99588453 158.702652,10.0299841 158.590933,10.0676113 C153.982243,11.5562349 151.644382,15.7022753 151.644382,15.7022753 C151.644382,15.7022753 151.64791,15.7058028 151.64791,15.7069787 C150.287293,14.1936622 149.459399,12.1935446 149.459399,9.99941208 L149.459399,9.99941208 L149.459399,9.99941208 Z M154.356206,2.27761773 C154.470277,2.42930213 156.049627,4.57052149 157.527841,7.1973661 C153.427177,8.28737727 149.867466,8.24387089 149.642853,8.24034335 C150.196743,5.59468517 151.973658,3.4017285 154.356206,2.27761773 L154.356206,2.27761773 L154.356206,2.27761773 Z M155.954372,1.70850726 C155.954372,1.70968311 155.953196,1.71085896 155.953196,1.71085896 C155.953196,1.71085896 155.942612,1.71321065 155.927324,1.71556235 C155.936732,1.71321065 155.944964,1.71203481 155.954372,1.70850726 L155.954372,1.70850726 L155.954372,1.70850726 Z M163.640619,3.59221589 C163.619451,3.62396378 162.403481,5.47592451 159.178926,6.68352049 C157.719527,4.00141102 156.115482,1.8707743 155.987299,1.70145217 C156.632916,1.54506438 157.306756,1.46040332 158.000588,1.46040332 C160.162051,1.46040332 162.136532,2.2670351 163.640619,3.59221589 L163.640619,3.59221589 L163.640619,3.59221589 Z M166.538249,9.91475101 C166.41477,9.88770651 163.524196,9.26568287 160.59011,9.63489917 C160.528959,9.48909401 160.468983,9.342113 160.40548,9.19513199 C160.227906,8.77653007 160.03622,8.36263155 159.837479,7.95578811 C163.210208,6.57887001 164.579056,4.59991769 164.595519,4.57640073 C165.792674,6.0309248 166.518257,7.88876477 166.538249,9.91475101 L166.538249,9.91475101 L166.538249,9.91475101 Z M167.79773,7.98753601 C167.66602,7.34552296 167.468454,6.71174084 167.213265,6.10735493 C166.963956,5.5147275 166.65232,4.94326533 166.291292,4.4094303 C165.934968,3.88029867 165.523373,3.38173908 165.071794,2.93021342 C164.619039,2.47751191 164.121597,2.06714093 163.591227,1.70968311 C163.057329,1.3475219 162.4858,1.03827386 161.893103,0.786642366 C161.288646,0.53265918 160.655965,0.335116703 160.013877,0.204597566 C159.355324,0.0693750367 158.677956,0 158.000588,0 C157.322044,0 156.644676,0.0693750367 155.986123,0.204597566 C155.344035,0.335116703 154.711354,0.53265918 154.106897,0.786642366 C153.5142,1.03827386 152.942671,1.3475219 152.407597,1.70968311 C151.878403,2.06714093 151.380961,2.47751191 150.928206,2.93021342 C150.476627,3.38173908 150.066208,3.88029867 149.708708,4.4094303 C149.34768,4.94326533 149.036044,5.5147275 148.786735,6.10735493 C148.53037,6.71174084 148.33398,7.34552296 148.20227,7.98753601 C148.068207,8.64483509 148,9.32212358 148,9.99941208 C148,10.6790523 148.068207,11.3563408 148.20227,12.0148157 C148.33398,12.6568287 148.53037,13.289435 148.786735,13.8926451 C149.036044,14.4852725 149.34768,15.0590864 149.708708,15.5929214 C150.066208,16.122053 150.476627,16.6182609 150.928206,17.0721383 C151.380961,17.5236639 151.878403,17.9328591 152.407597,18.2914927 C152.942671,18.6524781 153.5142,18.962902 154.106897,19.2133576 C154.711354,19.4696925 155.344035,19.6648833 155.986123,19.7954024 C156.644676,19.9318008 157.322044,20 158.000588,20 C158.677956,20 159.355324,19.9318008 160.013877,19.7954024 C160.655965,19.6648833 161.288646,19.4696925 161.893103,19.2133576 C162.4858,18.962902 163.057329,18.6524781 163.591227,18.2914927 C164.121597,17.9328591 164.619039,17.5236639 165.071794,17.0721383 C165.523373,16.6182609 165.934968,16.122053 166.291292,15.5929214 C166.65232,15.0590864 166.963956,14.4852725 167.213265,13.8926451 C167.468454,13.289435 167.66602,12.6568287 167.79773,12.0148157 C167.931793,11.3563408 168,10.6790523 168,9.99941208 C168,9.32212358 167.931793,8.64483509 167.79773,7.98753601 L167.79773,7.98753601 L167.79773,7.98753601 Z" id="Dribbble"></path>
                </g>
            </g>
        </g>
    </g>
</svg>