<?xml version="1.0" encoding="UTF-8"?>
<svg width="40px" height="40px" viewBox="0 0 40 40" version="1.1" xmlns="http://www.w3.org/2000/svg" xmlns:xlink="http://www.w3.org/1999/xlink">
    <!-- Generator: Sketch 50.2 (55047) - http://www.bohemiancoding.com/sketch -->
    <title>Page 1</title>
    <desc>Created with Sketch.</desc>
    <defs></defs>
    <g id="Ver2" stroke="none" stroke-width="1" fill="none" fill-rule="evenodd">
        <g id="Home" transform="translate(-300.000000, -582.000000)" fill="#EA4E8A">
            <g id="Visual">
                <g id="sub_social" transform="translate(240.000000, 525.000000)">
                    <g id="dribbble" transform="translate(60.000000, 57.000000)">
                        <path d="M20,3.33333333 C10.8333333,3.33333333 3.33333333,10.8333333 3.33333333,20.0000021 C3.33333333,29.1666687 10.8333333,36.6666692 20,36.6666692 C29.1666667,36.6666692 36.6666667,29.1666687 36.6666667,20.0000021 C36.6666667,10.8333333 29.1666667,3.33333333 20,3.33333333 Z M24.5833333,18.7500021 C24.5833333,18.7500021 24.1666667,17.5000021 23.9583333,17.0833354 C27.5,15.4166667 29.7916667,13.5416667 30.625,12.5 C32.0833333,14.375 32.9166667,16.6666667 33.125,19.1666708 C31.4583333,18.7500021 27.7083333,18.1250021 24.5833333,18.7500021 Z M22.2916667,13.9583333 C20.625,11.0416667 18.75,8.54166667 17.9166667,7.08333333 C21.875,6.04166667 25.4166667,7.29166667 28.125,9.79166667 C27.2916667,10.8333333 25.625,12.5 22.2916667,13.9583333 Z M13.9583333,8.54166667 C14.7916667,9.58333333 16.4583333,12.0833333 18.125,15.2083333 C13.5416667,16.25 9.375,16.4583333 7.5,16.4583333 C8.33333333,13.125 10.8333333,10.2083333 13.9583333,8.54166667 Z M20,18.5416688 C20.2083333,18.9583354 20.4166667,19.3750021 20.625,19.5833354 C14.7916667,21.4583354 11.0416667,26.2500021 9.79166667,28.1250021 C8.125,25.8333354 7.08333333,23.1250021 7.08333333,20.4166688 C8.95833333,20.2083375 14.375,20.0000021 20,18.5416688 Z M22.0833333,23.1250021 C23.5416667,27.2916688 24.375,30.6250042 24.5833333,32.2916688 C20.2083333,33.7500042 15.2083333,32.9166688 12.5,30.6250042 C13.3333333,29.1666688 16.0416667,25.4166708 22.0833333,23.1250021 Z M28.125,30.2083354 C27.7083333,28.5416708 27.0833333,25.6250021 25.8333333,22.0833354 C28.125,21.6666688 31.4583333,22.0833354 32.7083333,22.5000021 C32.0833333,25.6250021 30.4166667,28.3333354 28.125,30.2083354 Z" id="Page-1"></path>
                    </g>
                </g>
            </g>
        </g>
    </g>
</svg>