<?xml version="1.0" encoding="UTF-8"?>
<svg width="21px" height="20px" viewBox="0 0 21 20" version="1.1" xmlns="http://www.w3.org/2000/svg" xmlns:xlink="http://www.w3.org/1999/xlink">
    <!-- Generator: Sketch 47.1 (45422) - http://www.bohemiancoding.com/sketch -->
    <title>Github-color</title>
    <desc>Created with Sketch.</desc>
    <defs></defs>
    <g id="Symbols" stroke="none" stroke-width="1" fill="none" fill-rule="evenodd">
        <g id="Footer" transform="translate(-1176.000000, -50.000000)" fill="#2F3743">
            <g id="Group-2">
                <g transform="translate(879.000000, 50.000000)">
                    <path d="M307.212128,0 C301.572766,0 297,4.59025196 297,10.253891 C297,14.7832643 299.925957,18.6263107 303.984894,19.982303 C304.495532,20.0765048 304.681915,19.7599357 304.681915,19.4882245 C304.681915,19.2447098 304.672979,18.6000367 304.667872,17.7445312 C301.826809,18.364212 301.227447,16.3699548 301.227447,16.3699548 C300.763404,15.1857044 300.09383,14.870417 300.09383,14.870417 C299.166383,14.2340746 300.164043,14.2468912 300.164043,14.2468912 C301.188511,14.3193048 301.727872,15.3036168 301.727872,15.3036168 C302.639362,16.8704416 304.118298,16.4180169 304.700426,16.1552774 C304.792979,15.4926611 305.057234,15.0408772 305.348936,14.784546 C303.081064,14.5256514 300.697021,13.6464352 300.697021,9.7175179 C300.697021,8.59799114 301.094681,7.68288856 301.748298,6.96580187 C301.642979,6.70626647 301.292553,5.66427992 301.847872,4.25253553 C301.847872,4.25253553 302.705745,3.97697943 304.656383,5.30349368 C305.471489,5.07599969 306.344681,4.96257311 307.213404,4.95808731 C308.080851,4.96257311 308.954681,5.07599969 309.770426,5.30349368 C311.719787,3.97697943 312.575745,4.25253553 312.575745,4.25253553 C313.132979,5.66427992 312.782553,6.70626647 312.677234,6.96580187 C313.332128,7.68288856 313.727234,8.59799114 313.727234,9.7175179 C313.727234,13.6560476 311.339362,14.5230881 309.064468,14.7768561 C309.430851,15.0934252 309.75766,15.7188734 309.75766,16.6756298 C309.75766,18.0463612 309.744894,19.1517898 309.744894,19.4882245 C309.744894,19.762499 309.928723,20.0816314 310.447021,19.9810214 C314.502128,18.6224657 317.425532,14.7819827 317.425532,10.253891 C317.425532,4.59025196 312.852766,0 307.212128,0" id="Github"></path>
                </g>
            </g>
        </g>
    </g>
</svg>