<?xml version="1.0" encoding="UTF-8"?>
<svg width="20px" height="20px" viewBox="0 0 20 20" version="1.1" xmlns="http://www.w3.org/2000/svg" xmlns:xlink="http://www.w3.org/1999/xlink">
    <!-- Generator: Sketch 47.1 (45422) - http://www.bohemiancoding.com/sketch -->
    <title>Instagram-color</title>
    <desc>Created with Sketch.</desc>
    <defs></defs>
    <g id="Symbols" stroke="none" stroke-width="1" fill="none" fill-rule="evenodd">
        <g id="Footer" transform="translate(-953.000000, -50.000000)" fill="#2F3743">
            <g id="Group-2">
                <g transform="translate(879.000000, 50.000000)">
                    <path d="M84.0000198,0 C86.7158369,0 87.0563809,0.0115115681 88.1229872,0.0601777148 C89.1873706,0.108724776 89.9143063,0.277786048 90.55038,0.525006897 C91.2079684,0.780524015 91.7656443,1.12245728 92.3216134,1.67838663 C92.8775427,2.23435568 93.219476,2.79203161 93.4750328,3.44962002 C93.722214,4.0856937 93.8912752,4.81262938 93.9398223,5.87701279 C93.9884884,6.94361912 94,7.28416306 94,10.0000198 C94,12.7158369 93.9884884,13.0563809 93.9398223,14.1229872 C93.8912752,15.1873706 93.722214,15.9143063 93.4750328,16.55038 C93.219476,17.2079684 92.8775427,17.7656443 92.3216134,18.3216134 C91.7656443,18.8775427 91.2079684,19.219476 90.55038,19.4750328 C89.9143063,19.722214 89.1873706,19.8912752 88.1229872,19.9398223 C87.0563809,19.9884884 86.7158369,20 84.0000198,20 C81.2841631,20 80.9436191,19.9884884 79.8770128,19.9398223 C78.8126294,19.8912752 78.0856937,19.722214 77.44962,19.4750328 C76.7920316,19.219476 76.2343557,18.8775427 75.6783866,18.3216134 C75.1224573,17.7656443 74.780524,17.2079684 74.5250069,16.55038 C74.277786,15.9143063 74.1087248,15.1873706 74.0601777,14.1229872 C74.0115116,13.0563809 74,12.7158369 74,10.0000198 C74,7.28416306 74.0115116,6.94361912 74.0601777,5.87701279 C74.1087248,4.81262938 74.277786,4.0856937 74.5250069,3.44962002 C74.780524,2.79203161 75.1224573,2.23435568 75.6783866,1.67838663 C76.2343557,1.12245728 76.7920316,0.780524015 77.44962,0.525006897 C78.0856937,0.277786048 78.8126294,0.108724776 79.8770128,0.0601777148 C80.9436191,0.0115115681 81.2841631,0 84.0000198,0 Z M84.0000198,1.80179858 C81.3298918,1.80179858 81.0136015,1.81200021 79.9591419,1.86011063 C78.9841517,1.9045691 78.4546593,2.06747764 78.1022862,2.2044256 C77.635512,2.38583204 77.302391,2.60252738 76.9524791,2.95247906 C76.6025274,3.30239103 76.385832,3.635512 76.2044256,4.10228624 C76.0674776,4.45465931 75.9045691,4.98415175 75.8601106,5.95914187 C75.8120002,7.01360151 75.8017986,7.32989177 75.8017986,10.0000198 C75.8017986,12.6701082 75.8120002,12.9863985 75.8601106,14.0408581 C75.9045691,15.0158483 76.0674776,15.5453407 76.2044256,15.8977138 C76.385832,16.364488 76.6025671,16.697609 76.9524791,17.0475209 C77.302391,17.3974726 77.635512,17.614168 78.1022862,17.7955744 C78.4546593,17.9325224 78.9841517,18.0954309 79.9591419,18.1398894 C81.0134824,18.1879998 81.3296933,18.1982014 84.0000198,18.1982014 C86.6703067,18.1982014 86.9865573,18.1879998 88.0408581,18.1398894 C89.0158483,18.0954309 89.5453407,17.9325224 89.8977138,17.7955744 C90.364488,17.614168 90.697609,17.3974726 91.0475209,17.0475209 C91.3974726,16.697609 91.614168,16.364488 91.7955744,15.8977138 C91.9325224,15.5453407 92.0954309,15.0158483 92.1398894,14.0408581 C92.1879998,12.9863985 92.1982014,12.6701082 92.1982014,10.0000198 C92.1982014,7.32989177 92.1879998,7.01360151 92.1398894,5.95914187 C92.0954309,4.98415175 91.9325224,4.45465931 91.7955744,4.10228624 C91.614168,3.635512 91.3974726,3.30239103 91.0475209,2.95247906 C90.697609,2.60252738 90.364488,2.38583204 89.8977138,2.2044256 C89.5453407,2.06747764 89.0158483,1.9045691 88.0408581,1.86011063 C86.9863985,1.81200021 86.6701082,1.80179858 84.0000198,1.80179858 Z M84.0000198,4.86486808 C86.8360733,4.86486808 89.1351319,7.16392671 89.1351319,10.0000198 C89.1351319,12.8360733 86.8360733,15.1351319 84.0000198,15.1351319 C81.1639267,15.1351319 78.8648681,12.8360733 78.8648681,10.0000198 C78.8648681,7.16392671 81.1639267,4.86486808 84.0000198,4.86486808 Z M84.0000198,13.3333333 C85.8409578,13.3333333 87.3333333,11.8409578 87.3333333,10.0000198 C87.3333333,8.15904224 85.8409578,6.66666667 84.0000198,6.66666667 C82.1590422,6.66666667 80.6666667,8.15904224 80.6666667,10.0000198 C80.6666667,11.8409578 82.1590422,13.3333333 84.0000198,13.3333333 Z M90.5380348,4.66198662 C90.5380348,5.32473538 90.0007621,5.86196836 89.3380134,5.86196836 C88.6753043,5.86196836 88.1380316,5.32473538 88.1380316,4.66198662 C88.1380316,3.99923785 88.6753043,3.46196518 89.3380134,3.46196518 C90.0007621,3.46196518 90.5380348,3.99923785 90.5380348,4.66198662 Z" id="Instagram"></path>
                </g>
            </g>
        </g>
    </g>
</svg>