<?xml version="1.0" encoding="UTF-8"?>
<svg width="24px" height="22px" viewBox="0 0 24 22" version="1.1" xmlns="http://www.w3.org/2000/svg" xmlns:xlink="http://www.w3.org/1999/xlink">
    <!-- Generator: Sketch 47.1 (45422) - http://www.bohemiancoding.com/sketch -->
    <title>LinkedIn-color</title>
    <desc>Created with Sketch.</desc>
    <defs></defs>
    <g id="Symbols" stroke="none" stroke-width="1" fill="none" fill-rule="evenodd">
        <g id="Footer" transform="translate(-880.000000, -51.000000)" fill="#495262">
            <g id="Group-2">
                <g transform="translate(880.000000, 50.000000)">
                    <path d="M24,22.8181818 L18.6956726,22.8181818 L18.6956726,15.1482184 C18.6956726,13.140616 17.8659454,11.7700816 16.0413923,11.7700816 C14.6458137,11.7700816 13.8697084,12.6949478 13.5084666,13.5862842 C13.3730009,13.9062153 13.3941675,14.3518834 13.3941675,14.7975516 L13.3941675,22.8181818 L8.1392286,22.8181818 C8.1392286,22.8181818 8.20696143,9.23158912 8.1392286,7.99657134 L13.3941675,7.99657134 L13.3941675,10.3227078 C13.7046096,9.3056343 15.3838194,7.85406928 18.0634995,7.85406928 C21.3880527,7.85406928 24,9.98601175 24,14.5768131 L24,22.8181818 L24,22.8181818 Z M2.82502352,6.14264758 L2.7911571,6.14264758 C1.09783631,6.14264758 0,5.00961656 0,3.57341941 C0,2.10928068 1.13029163,1 2.85747883,1 C4.58325494,1 5.64440263,2.10648652 5.67826905,3.56922817 C5.67826905,5.00542532 4.58325494,6.14264758 2.82502352,6.14264758 L2.82502352,6.14264758 L2.82502352,6.14264758 Z M0.605362183,7.99657134 L5.28316087,7.99657134 L5.28316087,22.8181818 L0.605362183,22.8181818 L0.605362183,7.99657134 L0.605362183,7.99657134 Z" id="LinkedIn"></path>
                </g>
            </g>
        </g>
    </g>
</svg>