<?xml version="1.0" encoding="UTF-8"?>
<svg width="22px" height="20px" viewBox="0 0 22 20" version="1.1" xmlns="http://www.w3.org/2000/svg" xmlns:xlink="http://www.w3.org/1999/xlink">
    <!-- Generator: Sketch 47.1 (45422) - http://www.bohemiancoding.com/sketch -->
    <title>LinkedIn-color</title>
    <desc>Created with Sketch.</desc>
    <defs></defs>
    <g id="Symbols" stroke="none" stroke-width="1" fill="none" fill-rule="evenodd">
        <g id="Footer" transform="translate(-879.000000, -50.000000)" fill="#2F3743">
            <g id="Group-2">
                <g transform="translate(879.000000, 50.000000)">
                    <path d="M22,20 L17.1376999,20 L17.1376999,12.9692002 C17.1376999,11.128898 16.3771167,9.87257476 14.7046096,9.87257476 C13.4253293,9.87257476 12.7138993,10.7203688 12.3827611,11.5374272 C12.2585842,11.8306973 12.2779868,12.2392265 12.2779868,12.6477557 L12.2779868,20 L7.46095955,20 C7.46095955,20 7.52304798,7.54562336 7.46095955,6.41352372 L12.2779868,6.41352372 L12.2779868,8.54581546 C12.5625588,7.61349811 14.1018344,6.28289684 16.5582079,6.28289684 C19.605715,6.28289684 22,8.23717743 22,12.4454121 L22,20 L22,20 Z M2.58960489,4.71409362 L2.55856068,4.71409362 C1.00634995,4.71409362 0,3.67548185 0,2.35896779 C0,1.01684062 1.03610066,0 2.6193556,0 C4.20131703,0 5.17403575,1.01427931 5.20507996,2.35512582 C5.20507996,3.67163988 4.20131703,4.71409362 2.58960489,4.71409362 L2.58960489,4.71409362 L2.58960489,4.71409362 Z M0.554915334,6.41352372 L4.84289746,6.41352372 L4.84289746,20 L0.554915334,20 L0.554915334,6.41352372 L0.554915334,6.41352372 Z" id="LinkedIn"></path>
                </g>
            </g>
        </g>
    </g>
</svg>