<?xml version="1.0" encoding="UTF-8"?>
<svg width="14px" height="14px" viewBox="0 0 14 14" version="1.1" xmlns="http://www.w3.org/2000/svg" xmlns:xlink="http://www.w3.org/1999/xlink">
    <!-- Generator: Sketch 47.1 (45422) - http://www.bohemiancoding.com/sketch -->
    <title>Fill 9</title>
    <desc>Created with Sketch.</desc>
    <defs></defs>
    <g id="Page-2" stroke="none" stroke-width="1" fill="none" fill-rule="evenodd">
        <g id="Works" transform="translate(-320.000000, -3193.000000)" fill="#495262">
            <g id="Group-Copy" transform="translate(320.000000, 3189.000000)">
                <g id="icon/previous" transform="translate(7.000000, 11.000000) scale(-1, 1) rotate(-90.000000) translate(-7.000000, -11.000000) translate(0.000000, 4.000000)">
                    <path d="M12.945776,6.4584575 L12.945776,6.4584575 C12.6074246,6.11347312 12.0584481,6.11347312 11.7188686,6.45783253 L7.47013398,10.774512 L7.47013398,0.883085005 C7.47013398,0.395607083 7.0814291,0 6.6018422,0 L6.5981578,0 C6.1185709,0 5.73048009,0.395607083 5.73048009,0.883085005 L5.73048009,10.774512 L1.48972832,6.45095784 C1.15076293,6.10597346 0.600558243,6.10597346 0.261592854,6.45033287 L0.254224042,6.4584575 C-0.0847413472,6.80344187 -0.0847413472,7.36216657 0.254224042,7.70715094 L5.98654633,13.5412617 C6.32551172,13.8862461 6.87448828,13.8862461 7.21345367,13.5412617 L12.945776,7.70715094 C13.2847413,7.36216657 13.2847413,6.80344187 12.945776,6.4584575" id="Fill-9"></path>
                </g>
            </g>
        </g>
    </g>
</svg>