<?xml version="1.0" encoding="UTF-8"?>
<svg width="24px" height="24px" viewBox="0 0 24 24" version="1.1" xmlns="http://www.w3.org/2000/svg" xmlns:xlink="http://www.w3.org/1999/xlink">
    <!-- Generator: Sketch 47.1 (45422) - http://www.bohemiancoding.com/sketch -->
    <title>Dribbble-color</title>
    <desc>Created with Sketch.</desc>
    <defs></defs>
    <g id="Symbols" stroke="none" stroke-width="1" fill="none" fill-rule="evenodd">
        <g id="Footer" transform="translate(-1028.000000, -50.000000)" fill="#495262">
            <g id="Group-2">
                <g transform="translate(880.000000, 50.000000)">
                    <path d="M165.727289,20.4992651 C165.622861,19.8812393 165.076733,16.8729496 163.731875,13.1803163 C167.041101,12.6511847 169.907215,13.558469 170.118892,13.6276089 C169.66308,16.4835087 168.027518,18.9457346 165.727289,20.4992651 L165.727289,20.4992651 L165.727289,20.4992651 Z M160.000706,22.248927 C157.519845,22.248927 155.245017,21.367041 153.471159,19.8995826 C153.606633,20.009642 153.701182,20.0787818 153.701182,20.0787818 C153.701182,20.0787818 155.665549,15.7949321 161.743517,13.6769945 C161.766096,13.6685284 161.790086,13.6628844 161.812665,13.6558293 C163.254895,17.4020813 163.849003,20.5401846 164.001411,21.4361808 C162.77227,21.9582574 161.418945,22.248927 160.000706,22.248927 L160.000706,22.248927 L160.000706,22.248927 Z M149.751279,11.9992945 C149.751279,11.8906461 149.756924,11.7834088 149.759746,11.6761714 C149.941789,11.6804045 155.005116,11.7946969 160.281531,10.2157681 C160.575057,10.7900523 160.855883,11.3756247 161.112718,11.958375 C160.977245,11.9950614 160.843182,12.035981 160.70912,12.0811335 C155.178691,13.8674819 152.373258,18.8427303 152.373258,18.8427303 C152.373258,18.8427303 152.377492,18.8469634 152.377492,18.8483744 C150.744752,17.0323946 149.751279,14.6322535 149.751279,11.9992945 L149.751279,11.9992945 L149.751279,11.9992945 Z M155.627448,2.73314128 C155.764332,2.91516256 157.659552,5.48462579 159.43341,8.63683932 C154.512612,9.94485273 150.24096,9.89264507 149.971424,9.88841202 C150.636091,6.7136222 152.768389,4.0820742 155.627448,2.73314128 L155.627448,2.73314128 L155.627448,2.73314128 Z M157.545246,2.05020871 C157.545246,2.05161973 157.543835,2.05303075 157.543835,2.05303075 C157.543835,2.05303075 157.531134,2.05585278 157.512789,2.05867482 C157.524078,2.05585278 157.533957,2.05444177 157.545246,2.05020871 L157.545246,2.05020871 L157.545246,2.05020871 Z M166.768742,4.31065906 C166.743341,4.34875654 165.284177,6.57110941 161.414712,8.02022459 C159.663433,4.80169322 157.738578,2.24492916 157.584759,2.04174261 C158.359499,1.85407725 159.168107,1.75248398 160.000706,1.75248398 C162.594461,1.75248398 164.963838,2.72044212 166.768742,4.31065906 L166.768742,4.31065906 L166.768742,4.31065906 Z M170.245899,11.8977012 C170.097724,11.8652478 166.629035,11.1188194 163.108132,11.561879 C163.03475,11.3869128 162.96278,11.2105356 162.886576,11.0341584 C162.673487,10.5318361 162.443464,10.0351579 162.204974,9.54694573 C166.252249,7.89464401 167.894867,5.51990123 167.914623,5.49168087 C169.351208,7.23710977 170.221909,9.46651773 170.245899,11.8977012 L170.245899,11.8977012 L170.245899,11.8977012 Z M171.757276,9.58504321 C171.599224,8.81462755 171.362145,8.05408901 171.055918,7.32882592 C170.756747,6.617673 170.382784,5.9319184 169.94955,5.29131636 C169.521962,4.6563584 169.028047,4.0580869 168.486153,3.5162561 C167.942847,2.97301429 167.345916,2.48056911 166.709473,2.05161973 C166.068795,1.61702628 165.38296,1.24592863 164.671723,0.943970839 C163.946375,0.639191017 163.187158,0.402140044 162.416652,0.245517079 C161.626389,0.0832500441 160.813547,0 160.000706,0 C159.186453,0 158.373611,0.0832500441 157.583348,0.245517079 C156.812842,0.402140044 156.053625,0.639191017 155.328277,0.943970839 C154.61704,1.24592863 153.931205,1.61702628 153.289116,2.05161973 C152.654084,2.48056911 152.057153,2.97301429 151.513847,3.5162561 C150.971953,4.0580869 150.47945,4.6563584 150.05045,5.29131636 C149.617216,5.9319184 149.243253,6.617673 148.944082,7.32882592 C148.636444,8.05408901 148.400776,8.81462755 148.242724,9.58504321 C148.081849,10.3738021 148,11.1865483 148,11.9992945 C148,12.8148627 148.081849,13.6276089 148.242724,14.4177788 C148.400776,15.1881945 148.636444,15.947322 148.944082,16.6711741 C149.243253,17.382327 149.617216,18.0709036 150.05045,18.7115057 C150.47945,19.3464636 150.971953,19.9419131 151.513847,20.4865659 C152.057153,21.0283967 152.654084,21.5194309 153.289116,21.9497913 C153.931205,22.3829737 154.61704,22.7554824 155.328277,23.0560292 C156.053625,23.363631 156.812842,23.59786 157.583348,23.7544829 C158.373611,23.918161 159.186453,24 160.000706,24 C160.813547,24 161.626389,23.918161 162.416652,23.7544829 C163.187158,23.59786 163.946375,23.363631 164.671723,23.0560292 C165.38296,22.7554824 166.068795,22.3829737 166.709473,21.9497913 C167.345916,21.5194309 167.942847,21.0283967 168.486153,20.4865659 C169.028047,19.9419131 169.521962,19.3464636 169.94955,18.7115057 C170.382784,18.0709036 170.756747,17.382327 171.055918,16.6711741 C171.362145,15.947322 171.599224,15.1881945 171.757276,14.4177788 C171.918151,13.6276089 172,12.8148627 172,11.9992945 C172,11.1865483 171.918151,10.3738021 171.757276,9.58504321 L171.757276,9.58504321 L171.757276,9.58504321 Z" id="Dribbble"></path>
                </g>
            </g>
        </g>
    </g>
</svg>