<?xml version="1.0" encoding="UTF-8"?>
<svg width="24px" height="24px" viewBox="0 0 24 24" version="1.1" xmlns="http://www.w3.org/2000/svg" xmlns:xlink="http://www.w3.org/1999/xlink">
    <!-- Generator: Sketch 47.1 (45422) - http://www.bohemiancoding.com/sketch -->
    <title>Github-color</title>
    <desc>Created with Sketch.</desc>
    <defs></defs>
    <g id="Symbols" stroke="none" stroke-width="1" fill="none" fill-rule="evenodd">
        <g id="Footer" transform="translate(-1176.000000, -50.000000)" fill="#495262">
            <g id="Group-2">
                <g transform="translate(880.000000, 50.000000)">
                    <path d="M307.99925,0 C301.373,0 296,5.39354605 296,12.048322 C296,17.3703356 299.438,21.8859151 304.20725,23.4792061 C304.80725,23.5898931 305.02625,23.2179244 305.02625,22.8986638 C305.02625,22.6125341 305.01575,21.8550432 305.00975,20.8498241 C301.6715,21.5779491 300.96725,19.2346969 300.96725,19.2346969 C300.422,17.8432027 299.63525,17.4727399 299.63525,17.4727399 C298.5455,16.7250377 299.71775,16.7400971 299.71775,16.7400971 C300.9215,16.8251831 301.55525,17.9817497 301.55525,17.9817497 C302.62625,19.8227689 304.364,19.2911699 305.048,18.9824509 C305.15675,18.2038768 305.46725,17.6730308 305.81,17.3718415 C303.14525,17.0676404 300.344,16.0345614 300.344,11.4180835 C300.344,10.1026396 300.81125,9.02739405 301.57925,8.1848172 C301.4555,7.8798631 301.04375,6.6555289 301.69625,4.99672925 C301.69625,4.99672925 302.70425,4.67295083 304.99625,6.23160507 C305.954,5.96429963 306.98,5.8310234 308.00075,5.82575259 C309.02,5.8310234 310.04675,5.96429963 311.00525,6.23160507 C313.29575,4.67295083 314.3015,4.99672925 314.3015,4.99672925 C314.95625,6.6555289 314.5445,7.8798631 314.42075,8.1848172 C315.19025,9.02739405 315.6545,10.1026396 315.6545,11.4180835 C315.6545,16.045856 312.84875,17.0646285 310.17575,17.3628059 C310.60625,17.7347746 310.99025,18.4696763 310.99025,19.593865 C310.99025,21.2044744 310.97525,22.503353 310.97525,22.8986638 C310.97525,23.2209363 311.19125,23.5959169 311.80025,23.4777001 C316.565,21.8813972 320,17.3688296 320,12.048322 C320,5.39354605 314.627,0 307.99925,0" id="Github"></path>
                </g>
            </g>
        </g>
    </g>
</svg>