<?xml version="1.0" encoding="UTF-8"?>
<svg width="80px" height="80px" viewBox="0 0 80 80" version="1.1" xmlns="http://www.w3.org/2000/svg" xmlns:xlink="http://www.w3.org/1999/xlink">
    <!-- Generator: Sketch 47.1 (45422) - http://www.bohemiancoding.com/sketch -->
    <title>logo</title>
    <desc>Created with Sketch.</desc>
    <defs></defs>
    <g id="Symbols" stroke="none" stroke-width="1" fill="none" fill-rule="evenodd">
        <g id="logo" fill="#495262">
            <path d="M34,16.0001842 C25.7086358,16.0399011 19,22.4972847 19,30.4571429 C19,38.4416024 25.7501684,44.9142857 34.0769231,44.9142857 L34.0769231,44.9099998 L47,44.9099998 L47,35.9099998 L34,35.9099998 L34,35.9138632 C30.5989114,35.8764716 28,33.3626928 28,30.4571429 C28,27.5297264 30.6381762,25 34.0769231,25 L77.0924148,25 C78.9674643,29.6321572 80,34.6954978 80,40 C80,62.09139 62.09139,80 40,80 C27.2853904,80 15.9563396,74.0677171 8.62969634,64.8199997 L47,64.8199997 L47,55.8199997 L3.25022659,55.8199997 C1.15870942,50.9678952 0,45.6192632 0,40 C0,17.90861 17.90861,0 40,0 C53.0865426,0 64.7052789,6.28442638 72.0029295,16 L34,16 Z M47,35.9099998 L47,44.9099998 C50.4444134,44.9099998 53.085264,47.4408905 53.085264,50.3671427 C53.085264,53.2933949 50.4444134,55.8242856 47,55.8242856 L47,64.8242856 C55.3313612,64.8242856 62.085264,58.3516022 62.085264,50.3671427 C62.085264,42.3826832 55.3313612,35.9099998 47,35.9099998 Z" id="Combined-Shape"></path>
        </g>
    </g>
</svg>