<?xml version="1.0" encoding="UTF-8"?>
<svg width="300px" height="300px" viewBox="0 0 300 300" version="1.1" xmlns="http://www.w3.org/2000/svg" xmlns:xlink="http://www.w3.org/1999/xlink">
    <!-- Generator: Sketch 47.1 (45422) - http://www.bohemiancoding.com/sketch -->
    <title>Combined Shape</title>
    <desc>Created with Sketch.</desc>
    <defs></defs>
    <g id="Symbols" stroke="none" stroke-width="1" fill="none" fill-rule="evenodd">
        <g id="logo" fill="#2F3743">
            <path d="M177,135.008218 L177,135 L128,135 L128,169 L177,169 L177,168.946736 C189.522455,169.420588 198.993303,178.752997 198.993303,189.5 C198.993303,200.531277 189.014792,210.072134 176,210.072134 L176,244 C207.480231,244 233,219.599519 233,189.5 C233,159.719844 208.018898,135.51843 177,135.008218 Z M12.4813124,210.000004 C4.45342574,191.626133 0,171.333143 0,150 C0,67.1572875 67.1572875,0 150,0 C199.074535,0 242.644796,23.5665989 270.010986,60 L128,60 L128,94 L289.197504,94 C296.165036,111.302708 300,130.203502 300,150 C300,232.842712 232.842712,300 150,300 C102.745502,300 60.5945737,278.149025 33.1001393,244 L176,244 L176,210 L12.4813106,210 Z M128,169 L128,135.072134 C114.999432,135.072134 105.02551,125.535666 105.02551,114.5 C105.02551,103.464334 114.999432,93.9278656 128,93.9278656 L128,60 C96.5197693,60 71,84.4004811 71,114.5 C71,144.599519 96.5197693,169 128,169 Z" id="Combined-Shape"></path>
        </g>
    </g>
</svg>